<?xml version="1.0" encoding="UTF-8"?>
<svg xmlns="http://www.w3.org/2000/svg" version="1.1" viewBox="0 0 159 25">
  <defs>
    <style>
      .cls-1 {
        fill: #fff;
        fill-rule: evenodd;
      }
    </style>
  </defs>
  <!-- Generator: Adobe Illustrator 28.7.1, SVG Export Plug-In . SVG Version: 1.2.0 Build 142)  -->
  <g>
    <g id="Camada_1">
      <g id="Camada_1-2" data-name="Camada_1">
        <path class="cls-1" d="M30.3,14.5v-.8c.8-1.9,1.5-3.8,2.3-5.7.8,1.8,1.5,3.6,2.3,5.5.2.5,0,.9-.8,1h-3.8ZM32.3.9c-2.4,5.1-4.9,10.3-7.3,15.4-2.2,4.8-3,7.9-.4,8.7h6.2v-1.5c-.9-.2-1.9-.8-2.8-1-.2-.9-.3-1.7,0-2.6.4-.6.6-1.6,2.4-1.8h5.9c.4,1.6,1.2,3.3,1.7,4.9.3,1,.7,1.5,2.2,1.9,2.1,0,4.3-.1,6.4-.1,0-.5-.1-1-.2-1.5-1.7,0-2.2-.8-2.5-1.6-2.9-6.9-5.8-13.9-8.8-20.8h-2.7,0ZM52.5,3.4v20c0,.7.1,1.3.8,1.5h7.1v-1.1c-2-.4-3-1.7-3.6-3.4v-10.8c3.9,5.1,7.9,10.2,11.8,15.2h6.7v-1.3c-1.6-.2-2.6-1-3-2.4V1.9c0-.5-.3-.8-.7-.9h-6.7c0,.3,0,.7,0,1,1.5.4,2.9,1,3.4,2.8,0,3.5,0,7.1,0,10.6h-.7c-3.5-4.8-7-9.6-10.6-14.4h-7.5v1c1.2.1,2.2.6,2.8,1.3M87.6,14.5v-.8c.8-1.9,1.5-3.8,2.3-5.7.8,1.8,1.5,3.6,2.3,5.5.2.5,0,.9-.8,1h-3.8ZM89.6.9c-2.4,5.1-4.8,10.3-7.3,15.4-2.2,4.8-3,7.9-.4,8.7h6.2v-1.5c-.9-.2-1.9-.8-2.8-1-.3-.9-.3-1.7,0-2.6.4-.6.6-1.6,2.4-1.8h5.9c.4,1.6,1.2,3.3,1.7,4.9.3,1,.7,1.5,2.2,1.9,2.1,0,4.3-.1,6.4-.1,0-.5-.1-1-.2-1.5-1.7,0-2.2-.8-2.5-1.6-2.9-6.9-5.8-13.9-8.8-20.8h-2.7,0ZM113.7,3.5v7.5h4c3.8-2.1,2.4-7.4-2-7.4,0,0-2,0-2,0ZM106.1,1.1c7.1,0,14.9,0,15.4,0,5,3.3,4.6,8.9-1.2,11.2,2.6.7,4.1,2.7,5.4,6.2.7,2.5,1.8,4.6,4.1,5.4v1c-2.1,0-4.2,0-6.4,0-1.4-.3-1.6-1.4-2.1-2.4-.8-3.2-1.9-6.1-3.6-7.6h-3.7v6.9c.3,1,1.2,1.8,3.3,2,0,.3,0,.7,0,1h-8.7V3.6c0-.7-.3-1.1-1.1-1.1h-1.4c0-.5,0-1,0-1.4M142.8,14.5v-.8c.8-1.9,1.5-3.8,2.3-5.7.8,1.8,1.5,3.6,2.3,5.5.1.5-.1.9-.8,1h-3.8ZM144.8.9c-2.4,5.1-4.9,10.3-7.3,15.4-2.2,4.8-3,7.9-.4,8.7h6.2v-1.5c-.9-.2-2-.8-2.8-1-.2-1-.1-1.7,0-2.6.4-.6.6-1.6,2.4-1.8h5.9c.4,1.6,1.2,3.3,1.6,4.9.3,1,.7,1.5,2.2,1.9,2.1,0,4.3-.1,6.4-.1,0-.5-.1-1-.2-1.5-1.8,0-2.2-.8-2.5-1.6-2.9-6.9-5.9-13.9-8.8-20.8h-2.7,0ZM0,6.5c.5,0,1,0,1.5,0,.3-.8,1.1-1.6,2-1.9h3.4v18.8c0,.9.4,1.6,1.6,1.5,2.4,0,4.7,0,7.1,0v-1.1c-2.5-.4-3.3-1.6-3.2-3.5V4.9h4C18.1,4.6,18.8,1.2,18.8,0h-1.6c-.3.5-.5,1.1-1.7,1H1.6C1.2,2.8,0,4.7,0,6.5"/>
      </g>
    </g>
  </g>
</svg>